<?xml version="1.0" encoding="UTF-8"?>
<svg id="_레이어_1" xmlns="http://www.w3.org/2000/svg" version="1.1" viewBox="0 0 1024 1024">
  <!-- Generator: Adobe Illustrator 30.1.0, SVG Export Plug-In . SVG Version: 2.1.1 Build 136)  -->
  <defs>
    <style>
      .st0 {
        fill: #224688;
      }

      .st1 {
        fill: #fff;
      }
    </style>
  </defs>
  <rect class="st1" width="1024" height="1024"/>
  <path class="st0" d="M790.31,445.62h-330.12c-27.83,0-50.78-20.89-54.02-47.85-.26-2.15-.4-4.34-.4-6.57h0c0-14.44,5.63-27.56,14.8-37.3,9.92-10.53,24-17.11,39.61-17.11h232.19c25.35-2.55,53.95-14.63,71.04-31.62,10.36-10.3,19.57-21,25.5-34.2,8.42-18.73,11.19-29.79,12.29-44.07.55-7.13.69-15.06.91-25.16.06-2.91-.05-8.04-.05-8.04l-184.62.44-147.05-.12c-5.7,0-11.39.38-17.03,1.15-11.39,1.55-30.62,4.22-35.12,5.17-8.65,1.83-17.25,4.07-25.72,6.74-36.53,11.5-70.74,30.93-96.99,59.64-26.48,28.96-44.27,68.33-46.4,107.75-.68,12.62-.71,39.18,1.98,50.57l3.65,15.48c.31,1.31.64,2.6.99,3.9.11.4.23.8.34,1.2,1.9,6.81,4.33,13.44,7.24,19.87-.96.87-1.9,1.74-2.8,2.64-10.36,10.3-19.57,21-25.5,34.2-.27.61-.53,1.2-.8,1.8-11.79,26.69-11.76,37.71-12.4,67.21v8.26h341.98c28.51,0,51.9,21.93,54.22,49.85.13,1.51.19,3.03.19,4.56h0c0,10.19-2.81,19.73-7.68,27.88-9.5,15.89-26.87,26.53-46.73,26.53h-240.81c-23,4.1-47.27,15.32-62.46,30.42-10.36,10.3-19.57,21-25.5,34.2-8.42,18.73-11.19,29.79-12.29,44.07-.55,7.13-.69,15.06-.91,25.16-.06,2.91.05,8.04.05,8.04l184.07-.44,147.05.12c5.7,0,11.39-.38,17.03-1.15,11.39-1.55,30.62-4.22,35.12-5.17,8.65-1.83,17.25-4.07,25.72-6.74,36.53-11.5,70.74-30.93,96.99-59.64,26.48-28.96,44.27-68.33,46.4-107.75.68-12.62.71-39.18-1.98-50.57l-3.65-15.48c-.31-1.31-.64-2.6-.99-3.9h.21c-1.9-6.81-4.33-13.44-7.24-19.87.96-.87,1.9-1.74,2.8-2.64,10.36-10.3,19.57-21,25.5-34.2,12.59-28.01,12.55-38.85,13.2-69v-8.26h-11.83Z"/>
</svg>