<?xml version="1.0" encoding="UTF-8"?>
<svg id="_레이어_1" data-name="레이어 1" xmlns="http://www.w3.org/2000/svg" viewBox="0 0 1024 1024">
  <defs>
    <style>
      .cls-1 {
        fill: #234689;
      }
    </style>
  </defs>
  <!-- 흰색 배경 -->
  <rect width="1024" height="1024" fill="#FFFFFF"/>
  <!-- 원본 S 모양을 중앙에 배치하고 스케일 조정 -->
  <g transform="translate(45.5, 0) scale(0.695)">
    <path class="cls-1" d="M1315.15,582.82h-763.75c-64.38,0-117.47-48.34-124.97-110.7-.6-4.98-.92-10.05-.92-15.19h0c0-33.41,13.02-63.77,34.25-86.3,22.96-24.37,55.52-39.59,91.64-39.59h537.18c58.64-5.89,124.82-33.84,164.37-73.16,23.96-23.82,45.27-48.58,59-79.12,19.48-43.34,25.88-68.91,28.44-101.95,1.28-16.49,1.6-34.84,2.1-58.2.14-6.73-.13-18.6-.13-18.6l-427.12,1.02-340.2-.29c-13.18-.01-26.34.88-39.41,2.65-26.34,3.59-70.83,9.76-81.25,11.97-20.01,4.23-39.9,9.42-59.5,15.59-84.52,26.61-163.66,71.56-224.38,137.98-61.26,67-102.41,158.09-107.34,249.28-1.58,29.2-1.65,90.64,4.57,117l8.45,35.82c.71,3.02,1.49,6.02,2.29,9.02.25.93.52,1.86.78,2.79,4.39,15.75,10.01,31.1,16.75,45.97-2.22,2-4.39,4.03-6.47,6.1-23.96,23.82-45.27,48.58-59,79.12-.63,1.41-1.24,2.78-1.84,4.15C1.42,779.92,1.47,805.41,0,873.66v19.11h791.2c65.97,0,120.08,50.74,125.45,115.33.29,3.48.44,7,.44,10.56h0c0,23.58-6.49,45.64-17.77,64.51-21.98,36.76-62.17,61.38-108.12,61.38H234.07c-53.22,9.49-109.36,35.45-144.49,70.38-23.96,23.82-45.27,48.58-59,79.12-19.48,43.34-25.88,68.91-28.44,101.95-1.28,16.49-1.6,34.84-2.1,58.2-.15,6.73.13,18.6.13,18.6l425.85-1.02,340.2.29c13.18.01,26.34-.88,39.41-2.65,26.34-3.59,70.83-9.76,81.25-11.97,20.01-4.23,39.9-9.42,59.5-15.59,84.52-26.61,163.66-71.56,224.38-137.98,61.26-67,102.41-158.09,107.34-249.28,1.58-29.2,1.65-90.64-4.57-117l-8.45-35.82c-.71-3.02-1.49-6.02-2.29-9.02h.49c-4.39-15.75-10.01-31.1-16.75-45.97,2.22-2,4.39-4.03,6.47-6.1,23.96-23.82,45.27-48.58,59-79.12,29.13-64.81,29.03-89.88,30.53-159.65v-19.11h-27.38Z"/>
  </g>
</svg>
